<?xml version="1.0" encoding="utf-8"?>
<!-- Generator: Adobe Illustrator 26.5.0, SVG Export Plug-In . SVG Version: 6.00 Build 0)  -->
<svg version="1.1" id="katman_1" xmlns="http://www.w3.org/2000/svg" xmlns:xlink="http://www.w3.org/1999/xlink" x="0px" y="0px"
	 viewBox="0 0 2500 1250" style="enable-background:new 0 0 2500 1250;" xml:space="preserve">
<style type="text/css">
	.st0{fill:#30D5C8;}
	.st1{fill:#3C3C3B;}
	.st2{font-family:'MS-UIGothic';}
	.st3{font-size:90.2939px;}
	.st4{letter-spacing:44.2;}
	.st5{letter-spacing:38.3;}
</style>
<g>
	<path class="st0" d="M637.3,715.5H498.8l-22.7,49.9H422l118.8-264.8h54.5l118.8,264.8h-54.5L637.3,715.5z M568.1,556.3L518.9,669
		h98.4L568.1,556.3z"/>
	<path class="st0" d="M910.8,500.3h49.9v265.2h-31v0.4L790.5,586.9v178.6h-49.9V500.7h40.5l129.8,164.2V500.3z"/>
	<path class="st0" d="M1219.2,502.2l-117.7,126.7L1229,762.5v3h-61.7l-110.8-117.3v117.3h-49.9V500.7h49.9v112l100.6-112h62V502.2z"
		/>
	<path class="st0" d="M1442.4,715.5h-138.5l-22.7,49.9h-54.1l118.8-264.8h54.5l118.8,264.8h-54.5L1442.4,715.5z M1373.1,556.3
		L1324,669h98.4L1373.1,556.3z"/>
</g>
<g>
	<path d="M1519.2,644.9h6.6c4.1,0,6.1-2.2,6.1-6.6v-6.1v-21.7h20.7v22.3v6.4c0,3.9,1.4,5.8,4.2,5.8h25.4v18.8h-18.3h-6.9
		c-2.3,0.4-3.5,1-3.7,2c-0.2,1-0.4,2.1-0.5,3.5c-0.2,1.3-0.3,2.9-0.3,4.7v29.9c0,13.7,2.6,23.4,7.9,29.1c3,4.1,6.7,7.1,11,8.9
		c4.3,1.9,7.9,3.1,10.7,3.6V766c-15.2-1.9-27.4-7.8-36.6-17.7c-9.2-9.8-13.8-22.1-13.8-36.8v-36.1c0-5.1-0.3-8.4-0.9-9.7
		c-0.6-1.3-2.1-2-4.4-2h-7.4V644.9z"/>
	<path d="M1622,712.2c-4.8,0-8.1,0.5-9.9,1.4c-1.8,1-2.7,2.8-2.7,5.4c0,2.6,3,7.9,9.1,15.8c6.1,7.9,15.5,11.8,28.2,11.8
		c8.3,0,18.3-4.1,29.9-12.2l11.9,14.1c-6.7,5.9-13.4,10.3-20.1,13.2c-6.7,2.9-13.9,4.3-21.5,4.3c-17,0-31.3-6-43.2-18
		c-11.8-12-17.7-26.7-17.7-44c0-17.3,5.8-32,17.5-44c11.7-12,25.8-18,42.4-18c16.4,0,30.8,6.2,43.2,18.5
		c12.4,12.4,18.5,26.8,18.5,43.4v8.2H1622z M1620.7,693.4h51.6c5.8,0,9.3-0.2,10.4-0.7c1.1-0.4,1.6-1.8,1.6-4.1
		c0-1.6-1.1-4.2-3.3-7.8c-2.2-3.6-4.9-7-8-10.1c-3.1-3.1-7.1-5.6-12-7.5c-4.9-1.9-9.5-2.9-14-2.9c-4.4,0-9.3,1.2-14.5,3.6
		c-5.2,2.4-9.3,5.2-12.2,8.4c-2.9,3.2-5.2,6.4-6.9,9.5c-1.7,3.1-2.5,5.7-2.5,7.6c0,2.3,1.1,3.7,3.2,4H1620.7z"/>
	<path d="M1841.5,703.2c0,17.1-6,31.7-17.9,43.8c-11.9,12.1-26.4,18.1-43.3,18.1c-16.4,0-30.5-5.9-42.1-17.7
		c-11.7-11.8-17.5-26.2-17.5-43.2c0-17,5.8-31.4,17.5-43.4c11.7-12,25.6-18,41.9-18c6.9,0,13.8,1.1,20.7,3.3
		c6.9,2.2,11.2,4.2,12.8,6c1.7,1.8,2.8,2.9,3.4,3.4c0.6,0.5,1.3,1,2,1.3c0.4-0.4,0.7-0.7,1.1-1.2c0.4-0.4,0.5-1.2,0.5-2.3v-81.3
		h20.9V703.2z M1739,703.8c0,11.5,4,21.4,12.1,29.6c8,8.2,17.6,12.4,28.7,12.4c11.3,0,20.9-4.1,28.9-12.2
		c7.9-8.1,11.9-18.1,11.9-29.8c0-11.5-4-21.3-11.9-29.5c-7.9-8.1-17.7-12.2-29.1-12.2c-11.1,0-20.7,4.1-28.6,12.2
		C1743,682.5,1739,692.3,1739,703.8z"/>
	<path d="M1955.7,753.9c-4.1,3.4-9.4,6.3-15.9,8.6c-6.5,2.3-12.9,3.5-19.1,3.5c-16.2,0-30.3-6.1-42.1-18.3
		c-11.8-12.2-17.7-26.9-17.7-44.1c0-17,5.8-31.5,17.5-43.5c11.7-12,25.9-18.1,42.6-18.1c13.8,0,26.2,4.2,37.2,12.6
		c11,8.4,17.5,18.5,19.5,30.3l12.2,78.1h-21.2l-2.6-18L1955.7,753.9z M1880.7,704.1c0,11.7,4,21.6,11.9,29.8
		c7.9,8.1,17.6,12.2,28.9,12.2c11.1,0,20.7-4.2,28.6-12.5c7.9-8.3,11.9-18.3,11.9-30c0-11.7-3.9-21.7-11.8-29.9
		c-7.9-8.2-17.3-12.4-28.5-12.4c-11.5,0-21.2,4.2-29.1,12.5C1884.7,682.1,1880.7,692.2,1880.7,704.1z"/>
	<path d="M2005,644.9h20.9v7.7c0,2.5,0.5,3.7,1.6,3.7c0.5-0.2,1.1-0.4,1.6-0.7c0.5-0.3,1.4-0.9,2.6-2l6.6-4.2l7.4-4.2
		c3.9-1.6,8.5-2.4,13.8-2.4v20.9h-3.4c-4.8,0-11,2.2-18.7,6.6c-7.7,4.4-11.5,13.7-11.5,28V763H2005V644.9z"/>
	<path d="M2077.8,599.1c3.9,0,7.2,1.3,9.9,3.8c2.7,2.6,4.1,5.8,4.1,9.7c0,4.1-1.3,7.3-4,9.8c-2.6,2.5-6,3.7-10.1,3.7
		c-3.9,0-7.2-1.2-9.8-3.7c-2.6-2.5-4-5.7-4-9.8c0-3.9,1.4-7.1,4.1-9.7C2070.9,600.4,2074.1,599.1,2077.8,599.1z M2067.5,644.9h20.9
		V763h-20.9V644.9z"/>
	<path d="M2112,572.1h20.7v103c0,11.1,2.6,16.7,7.9,16.7c3.8,0,8.1-3.1,12.8-9.2l28.2-37.7l27.6,0l-46.6,54.3l46.6,63.8l-24.8,0.1
		l-36.5-50c-2.5-3.7-5.5-5.5-9.1-5.5c-1.6,0-3,0.7-4.3,2.1c-1.2,1.4-1.9,3.1-1.9,5V763H2112V572.1z"/>
</g>
<text transform="matrix(1.017 0 0 1 416.2548 869.4199)"><tspan x="0" y="0" class="st1 st2 st3 st4">Eğitim Danışmanlık</tspan><tspan x="1510.7" y="0" class="st1 st2 st3 st5"> </tspan><tspan x="1576.5" y="0" class="st1 st2 st3">A</tspan><tspan x="1633.7" y="0" class="st1 st2 st3 st5">.</tspan><tspan x="1690.4" y="0" class="st1 st2 st3">Ş.</tspan></text>
<rect x="422" y="914.8" class="st0" width="1787.2" height="12.3"/>
<g>
	<path d="M302.7,116.3l215.9,385.5L400.8,763.2c0,0,49.8-255.3,50.8-258.8C452.6,500.8,302.7,116.3,302.7,116.3z"/>
	<polygon points="372.9,743.6 344.3,660.3 164.8,492.1 390.1,627.2 	"/>
	<polygon points="395.5,602.2 395,601.2 159.6,435.7 407.7,527.6 	"/>
	<polygon points="411.2,500.1 180.4,388.5 383.5,429.1 	"/>
	<polygon points="374.8,400.3 196.3,330.7 346.5,324.8 	"/>
	<polygon points="336.8,293.2 223.7,270.9 319.2,239.5 	"/>
	<polygon points="309,212.6 256.5,210.9 293.9,164.2 	"/>
</g>
</svg>
